<?xml version="1.0" encoding="UTF-8"?>
<svg id="Layer_2" data-name="Layer 2" xmlns="http://www.w3.org/2000/svg" viewBox="0 0 482.31 125.9">
  <defs>
    <style>
      .cls-1 {
        fill: #16a34a;
      }
    </style>
  </defs>
  <g id="Layer_1-2" data-name="Layer 1">
    <g>
      <path class="cls-1" d="M21.27,31.22c0-6.69,4.97-11.83,13.21-11.83l24.7,8.75V5.83c-6.86-3.26-15.44-5.83-26.42-5.83C14.92,0,.34,12.87.34,31.56c0,38.08,44.6,36.71,44.6,60.21,0,10.12-7.72,14.75-16.64,14.75L0,96.91v22.13c9.6,4.29,20.07,6.86,30.36,6.86,20.07,0,35.68-13.04,35.68-34.3,0-38.59-44.77-37.91-44.77-60.38Z"/>
      <path class="cls-1" d="M114.92,96.23c0,6.69-2.57,11.15-8.92,11.15s-8.92-4.46-8.92-11.15v-56.09h-21.1v55.92c0,17.84,10.63,29.85,30.02,29.85s30.02-12.01,30.02-29.85v-55.92h-21.1v56.09Z"/>
      <path class="cls-1" d="M227.26,38.08c-8.75,0-15.61,3.94-20.24,10.63-4.29-6.69-11.32-10.63-20.07-10.63-7.72,0-13.72,2.74-18.01,8.23v-6.17h-19.04v83.7h21.1v-54.89c0-7.72,3.6-12.35,9.78-12.35s9.78,4.63,9.78,12.35v54.89h21.1v-54.89c0-7.55,3.6-12.35,9.78-12.35s9.78,4.63,9.78,12.35v54.89h21.1v-57.29c0-17.67-9.95-28.47-25.04-28.47Z"/>
      <path class="cls-1" d="M313.71,38.08c-10.12,0-18.87,3.6-26.24,10.63V2.06h-21.27v121.78h20.24v-9.43c7.38,7.38,16.98,11.49,27.27,11.49,22.98,0,43.4-17.5,43.4-43.91s-20.41-43.91-43.4-43.91ZM311.65,107.03c-13.72,0-24.18-10.29-24.18-25.04v-1.03c.51-14.41,10.81-24.01,24.18-24.01s24.19,10.29,24.19,25.04-10.46,25.04-24.19,25.04Z"/>
      <rect class="cls-1" x="368.25" y="2.06" width="21.1" height="121.78"/>
      <path class="cls-1" d="M482.31,71.01c-4.29-20.07-19.04-32.93-40.31-32.93-23.5,0-41.51,18.01-41.51,43.91s17.67,43.91,45.28,43.91c11.66,0,22.47-3.95,30.53-9.26v-19.04l-29.16,10.81c-13.72,0-23.67-6.52-25.56-19.04h60.72v-18.35ZM421.42,73.07c1.89-11.15,9.78-17.15,20.58-17.15s18.52,5.49,20.58,17.15h-41.17Z"/>
    </g>
  </g>
</svg>